<?xml version="1.0" encoding="UTF-8" standalone="no"?>
<svg xmlns="http://www.w3.org/2000/svg" width="240" height="240" baseProfile="tiny" version="1.1" xmlns:xlink="http://www.w3.org/1999/xlink" viewBox="0 0 240 240">
 <defs>
  <linearGradient id="linearGradient4650" y2="191.68" gradientUnits="userSpaceOnUse" x2="123.94" gradientTransform="matrix(1.1951845,0,0,1.1951845,-24.741263,-15.262245)" y1="185.81" x1="82.634">
   <stop stop-color="#1a1a1a" offset="0"/>
   <stop stop-color="#989898" offset="1"/>
  </linearGradient>
  <radialGradient id="radialGradient4640" gradientUnits="userSpaceOnUse" cy="83.973" cx="49.89" gradientTransform="matrix(-0.84406207,1.4046325,-0.99186244,-0.59602324,210.69501,97.664397)" r="55.453">
   <stop stop-color="#6094a6" offset="0"/>
   <stop stop-color="#cad8dc" offset="0.53418"/>
   <stop stop-color="#293c41" offset="0.57098"/>
   <stop stop-color="#3e5b68" offset="0.75795"/>
   <stop stop-color="#FFF" offset="1"/>
  </radialGradient>
  <linearGradient id="linearGradient4627" y2="135.02" gradientUnits="userSpaceOnUse" x2="153.27" gradientTransform="matrix(1.1951845,0,0,1.1951845,-24.741263,-15.262245)" y1="144.48" x1="144.24">
   <stop stop-color="#1a1a1a" offset="0"/>
   <stop stop-color="#989898" offset="1"/>
  </linearGradient>
  <linearGradient id="linearGradient4664" y2="70.598" gradientUnits="userSpaceOnUse" x2="22.85" gradientTransform="matrix(1.1951845,0,0,1.1951845,26.732699,30.590299)" y1="101.51" x1="89.504">
   <stop stop-color="#FFF" offset="0"/>
   <stop stop-color="#535353" offset="1"/>
  </linearGradient>
  <linearGradient id="linearGradient4624" y2="130.26" gradientUnits="userSpaceOnUse" x2="160.93" gradientTransform="matrix(1.1951845,0,0,1.1951845,-24.741263,-15.262245)" y1="121.12" x1="146.95">
   <stop stop-color="#1a1a1a" offset="0"/>
   <stop stop-color="#989898" offset="1"/>
  </linearGradient>
  <radialGradient id="radialGradient4509" gradientUnits="userSpaceOnUse" cy="75.945" cx="55.895" gradientTransform="matrix(0.712448,0.71244794,-1.0573129,1.0573129,143.11367,20.238233)" r="50.827">
   <stop stop-color="#F00" stop-opacity="0" offset="0"/>
   <stop stop-color="#F00" stop-opacity="0" offset="0.58503"/>
   <stop stop-color="#F00" offset="1"/>
  </radialGradient>
  <linearGradient id="linearGradient4607" y2="4.1278" gradientUnits="userSpaceOnUse" x2="41.294" gradientTransform="matrix(2.9113924,0,0,2.9113924,3.5443039,3.5443077)" y1="77.327" x1="41.294">
   <stop stop-color="#531b1b" offset="0"/>
   <stop stop-color="#ecc8c8" offset="1"/>
  </linearGradient>
  <linearGradient id="linearGradient4647" y2="179.75" gradientUnits="userSpaceOnUse" x2="78.605" gradientTransform="matrix(1.1951845,0,0,1.1951845,-24.741263,-15.262245)" y1="172.9" x1="99.686">
   <stop stop-color="#1a1a1a" offset="0"/>
   <stop stop-color="#989898" offset="1"/>
  </linearGradient>
  <linearGradient id="linearGradient4634" y2="162.99" gradientUnits="userSpaceOnUse" x2="138.49" gradientTransform="matrix(1.1951845,0,0,1.1951845,-24.741263,-15.262245)" y1="166.25" x1="111.98">
   <stop stop-color="#1a1a1a" offset="0"/>
   <stop stop-color="#989898" offset="1"/>
  </linearGradient>
  <radialGradient id="radialGradient4541" gradientUnits="userSpaceOnUse" cy="75.945" cx="55.895" gradientTransform="matrix(0.712448,0.71244794,-1.0573129,1.0573129,129.11366,-7.761767)" r="50.827">
   <stop stop-color="#F00" stop-opacity="0" offset="0"/>
   <stop stop-color="#F00" stop-opacity="0" offset="0.58503"/>
   <stop stop-color="#F00" offset="1"/>
  </radialGradient>
  <linearGradient id="linearGradient4654" y2="149.54" gradientUnits="userSpaceOnUse" x2="38.214" gradientTransform="matrix(1.1951845,0,0,1.1951845,-24.741263,-15.262245)" y1="160.96" x1="56.241">
   <stop stop-color="#1a1a1a" offset="0"/>
   <stop stop-color="#989898" offset="1"/>
  </linearGradient>
  <radialGradient id="radialGradient4537" gradientUnits="userSpaceOnUse" cy="75.945" cx="55.895" gradientTransform="matrix(0.712448,0.71244794,-1.0573129,1.0573129,131.11366,-5.761767)" r="50.827">
   <stop stop-color="#b00000" stop-opacity="0" offset="0"/>
   <stop stop-color="#ae0000" stop-opacity="0" offset="0.58503"/>
   <stop stop-color="#ae0000" offset="1"/>
  </radialGradient>
  <linearGradient id="linearGradient4616" y2="56.99" gradientUnits="userSpaceOnUse" x2="59.898" gradientTransform="matrix(1.1951845,0,0,1.1951845,26.732699,30.590299)" y1="73.304" x1="44.325">
   <stop stop-color="#0a0d25" offset="0"/>
   <stop stop-color="#fffbfb" offset="1"/>
  </linearGradient>
  <linearGradient id="linearGradient4631" y2="146.07" gradientUnits="userSpaceOnUse" x2="142.89" gradientTransform="matrix(1.1951845,0,0,1.1951845,-24.741263,-15.262245)" y1="156.19" x1="136.41">
   <stop stop-color="#1a1a1a" offset="0"/>
   <stop stop-color="#989898" offset="1"/>
  </linearGradient>
  <linearGradient id="linearGradient4637" y2="84.566" gradientUnits="userSpaceOnUse" x2="172.15" gradientTransform="matrix(1.1951845,0,0,1.1951845,-24.741263,-15.262245)" y1="100.23" x1="140.19">
   <stop stop-color="#1a1a1a" offset="0"/>
   <stop stop-color="#989898" offset="1"/>
  </linearGradient>
  <linearGradient id="linearGradient4643" y2="43.491" gradientUnits="userSpaceOnUse" x2="60.023" gradientTransform="matrix(1.1951845,0,0,1.1951845,26.732699,30.590299)" y1="90.094" x1="63.176">
   <stop stop-color="#FFF" offset="0"/>
   <stop stop-color="#b5b5b5" offset="0.47868"/>
   <stop stop-color="#3c3c3c" offset="0.52799"/>
   <stop stop-color="#000" offset="1"/>
  </linearGradient>
  <linearGradient id="linearGradient4620" y2="94.024" gradientUnits="userSpaceOnUse" x2="36.624" gradientTransform="matrix(1.1951845,0,0,1.1951845,26.732699,30.590299)" y1="48.111" x1="82.416">
   <stop stop-color="#FFF" offset="0"/>
   <stop stop-color="#FFF" stop-opacity="0" offset="1"/>
  </linearGradient>
  <linearGradient id="linearGradient4679" y2="225.2" gradientUnits="userSpaceOnUse" x2="155.57" y1="16.643" x1="149.03">
   <stop stop-color="#531b1b" offset="0"/>
   <stop stop-color="#ecc8c8" offset="1"/>
  </linearGradient>
  <linearGradient id="linearGradient4660" y2="99.474" gradientUnits="userSpaceOnUse" x2="171.57" gradientTransform="matrix(1.1951845,0,0,1.1951845,-24.741263,-15.262245)" y1="99.474" x1="135.47">
   <stop stop-color="#1a1a1a" offset="0"/>
   <stop stop-color="#989898" offset="1"/>
  </linearGradient>
  <linearGradient id="linearGradient4657" y2="161.87" gradientUnits="userSpaceOnUse" x2="39.109" gradientTransform="matrix(1.1951845,0,0,1.1951845,-24.741263,-15.262245)" y1="176.88" x1="66.929">
   <stop stop-color="#1a1a1a" offset="0"/>
   <stop stop-color="#989898" offset="1"/>
  </linearGradient>
  <filter id="filter3841" color-interpolation-filters="sRGB">
   <feGaussianBlur id="feGaussianBlur3843" stdDeviation="3.5377978"/>
  </filter>
  <filter id="filter3845" color-interpolation-filters="sRGB">
   <feGaussianBlur id="feGaussianBlur3847" stdDeviation="1.4151191"/>
  </filter>
  <filter id="filter3849" color-interpolation-filters="sRGB">
   <feGaussianBlur id="feGaussianBlur3851" stdDeviation="0.70755956"/>
  </filter>
 </defs>
 <g id="g4681">
  <path id="rect4670" fill="none" d="m0,0h240v240h-240z"/>
  <path id="hicg_background" d="M233.5,120c0,84.1-29.4,113.5-113.5,113.5-84.12,0-113.54-29.4-113.54-113.5,0-84.12,29.424-113.54,113.54-113.54,84.1,0,113.5,29.424,113.5,113.54z" stroke="#FFF" stroke-width="2.91139245" fill="url(#linearGradient4607)"/>
  <path id="hicg_highlight" opacity="0.25" d="M120,6.456c-84.12,0-113.54,29.424-113.54,113.54,0,84.12,29.42,113.5,113.5,113.5,84.13,0,113.5-29.43,113.5-113.5,0-84.12-29.42-113.5-113.5-113.5zm0,224.2c-82.77,0.04-110.7-27.86-110.7-110.66,0-82.77,27.933-110.7,110.7-110.7,82.77,0,110.7,27.94,110.7,110.7,0,82.77-27.93,110.7-110.7,110.7z" stroke="#FFF" stroke-width="2.91139245" fill="url(#linearGradient4607)"/>
  <path id="hicg_overlay" opacity="0.40000000000000002" d="M233.5,120c0,84.1-29.4,113.5-113.5,113.5-84.07,0-113.48-29.4-113.48-113.5,0-84.12,29.407-113.54,113.48-113.54,84.1,0,113.5,29.424,113.5,113.54z" stroke="url(#linearGradient4679)" stroke-width="2.91139245000000010" fill="url(#linearGradient4607)"/>
  <path id="rect4169" opacity="0.71238942" fill="none" d="m24.32,22.19h199.5v199.5h-199.5z"/>
  <path id="path3825" opacity="0.71238942" d="m100.6,183.9c12.73,4.382,27.11-3.398,42.01-15.01-4.125,1.477-8.023,4.769-12.97-0.3263,12.76-8.084,26.07-12.01,37.19-32.3-7.465,5.027-14.2,7.57-19.49,5.22,13.38-11.82,28.46-13.59,38.42-43.31-6.534,7.007-13.26,11.53-20.23,12.89,12.61-13.71,16.15-33.14,35.4-42.25-17.7,5.036-27.66,13.59-41.11,20.56,4.548-6.148,6.673-11.33,9.136-16.64-8.832,8.068-17.78,15.67-27.9,18.6,6.586-8.803,6.243-12.06,8.972-17.78-7.982,8.386-15.47,17.27-25.94,23.17,5.249-6.303,6.32-11.85,6.852-17.29-8.813,11.96-18,23.54-30.67,31.65,43.23-17.59,56.77,5.729,0.3263,72.84z" transform="matrix(1.1951845,0,0,1.1951845,-24.741263,-15.262245)" filter="url(#filter3841)" fill="url(#radialGradient4509)"/>
  <path id="path3799" fill="#1a1a1a" d="m137.2,99.67l-4.963,21.65,13.79-5.928z"/>
  <path id="path3789" fill="#1a1a1a" d="M156.3,55l10.8,12.54-22.8,18.06-11.7-9.37z"/>
  <path id="path3763" fill="url(#linearGradient4664)" d="m135.4,45.6l-14.64,3.586-11.84,24.84-2.764-20.13-12.96,7.731-5.229,23.72-8.553-11.06-2.916,1.697-5.899,17.61-6.611,17.93-17.37,5.789,7.171,7.731-6.91,13.78,1.083,9.076-17.37,16.55,1.12,14.64,14.34-15.16,4.669,4.669-15.99,20.69,11.32,11.84,21.51,9.674-20.43-11.58,14.34-23.19,6.349-0.5229-7.731,29.77,43.59,4.669-17.37-39.96,9.916-5.228,2.185,19.31,47.73-5.528-30.07-33.35,6.611-8.03,39.44,21.25-3.025-47.99-24.02-2.204,1.681-8.553,44.67,7.731-18.49-41.35-21.77,8.852-2.764-3.623,17.37-16.28-9.375-7.993-23.98,26.22zm-27.04,35.37c5.221-0.2306,9.168,1.563,10.79,5.378,3.109,9.478-3.549,32.92-13.74,43.62-17.43,22.73-46.82,32.37-48.82,10.98-0.3803-13.25,8.923-27.39,15.84-36.57,11.43-15.16,25.96-22.98,35.93-23.42z"/>
  <path id="path3793" fill="#1a1a1a" d="m106.7,53.89l6.618,11.17-6.066,10.06-4.136-4.55z"/>
  <path id="path3785" fill="url(#linearGradient4660)" d="m180.3,107.8l-16.27-14.2-26.88,6.342,5.177,8.586,17.43,1.893,3.418,3.237z"/>
  <path id="path3769" fill="url(#linearGradient4657)" d="m63.41,173.3l-19.85,25.78,23.85,12.13,0.543-2.386-9.279-4.316-0.0092-1.748,17.16-28.5z"/>
  <path id="path3767" fill="url(#linearGradient4654)" d="m31.56,179.6l8.686,4.963,14.61-17.37-7.169-5.377z"/>
  <path id="path3765" fill="#333" d="m38.45,140.6l-5.515,9.375,8.686,5.928,8.962-9.513-7.445-8.824z"/>
  <path id="path3771" fill="url(#linearGradient4650)" d="m79.54,196.9l-19.16,8.548,20.96,9.789,21.78-5.239z"/>
  <path id="path3773" fill="url(#linearGradient4647)" d="m80.36,193.6l22.89,16.13,1.305-20.82-6.12-4.553-0.1517-4.137,7.188-5.927-3.048-15.99-15.99,10.48z"/>
  <path id="path3791" fill="#1a1a1a" d="m135.5,45.21l7.307,11.17-18.2,19.3-6.342-4.963z"/>
  <path id="path3883" fill="url(#linearGradient4643)" d="M108.3,74.59l-38.54,25.36-20.95,39.75,15.98,24.8,49.61-30.9,19.3-45.79-25.4-13.22zm7.918,20.02c1.38,16.89-18.79,42.99-35.29,51.49-1.12-17,19.05-42.7,35.37-51.49z"/>
  <path id="path2989" fill="url(#radialGradient4640)" d="m132,46.39l-15.01,2.54-9.748,16.77-4.893,1.531,1.98-12.47-13.67,7.806-3.1,15.8-6.237,4.482-4.893-7.022-11.69,12.66,3.324,7.993-4.295,6.275-7.619-0.5976-9.935,15.39,6.237,3.324-2.129,5.453-12.1,7.022-4.893,15.8,11.5-6.648,0.5976,5.864-15.95,13.15,1.195,14.72,12.81-12.47,4.295,4.893-13.86,20.28,8.777,7.395,14.64-20.06,8.366,0.9711-7.022,25.92,17.37-9.151,6.424-24.76,9.935-6.237,5.864,17.52,22.6-17.93-9.337-18.53,9.337-11.5,18.34,4.893,16.4-26.33-21.66-2.129,0.9711-10.94,27.12-6.611-1.382-22.45-20.06,7.433-4.482-5.266,16.55-16.17-8.553-7.022-16.4,15.99h-7.208l11.5-17.55zm-23.68,34.59c5.221-0.2306,9.168,1.563,10.79,5.378,3.109,9.478-3.549,32.92-13.74,43.62-17.43,22.73-46.82,32.37-48.82,10.98-0.3803-13.25,8.923-27.39,15.84-36.57,11.43-15.16,25.96-22.98,35.93-23.42z"/>
  <path id="path3787" fill="url(#linearGradient4637)" d="M181,105.7l-15.2-15.13-2.7-24.68,17.2,19.3z"/>
  <path id="path3775" fill="url(#linearGradient4634)" d="M98.56,184.2l24.24-19.5,23.1,14.2-25,21.7z"/>
  <path id="path3777" fill="url(#linearGradient4631)" d="m123.5,162.8l23.3,15.86-11.72-20.4-19.03-12.82z"/>
  <path id="path3779" fill="#1a1a1a" d="m135.5,158.5l5.239-6.342-17.51-14.89-7.307,7.996z"/>
  <path id="path3781" fill="url(#linearGradient4627)" d="m140.9,152.3l20.68,6.618-21.09-17.37-17.79-4.412z"/>
  <path id="path3783" fill="url(#linearGradient4624)" d="m143.1,140.3l18.61,17.1,14.48-29.5-16.68-17.79z"/>
  <path id="path3813" d="m88.63,157.9c12.73,4.382,27.11-3.398,42.01-15.01-4.125,1.477-8.023,4.769-12.97-0.3263,12.76-8.084,26.07-12.01,37.19-32.3-7.465,5.027-14.2,7.57-19.49,5.22,13.38-11.82,28.46-13.59,38.42-43.31-6.534,7.007-13.26,11.53-20.23,12.89,12.61-13.71,16.15-33.14,35.4-42.25-17.7,5.036-27.66,13.59-41.11,20.56,4.548-6.148,6.673-11.33,9.136-16.64-8.832,8.068-17.78,15.67-27.9,18.6,6.586-8.803,6.243-12.06,8.972-17.78-7.982,8.386-15.47,17.27-25.94,23.17,5.249-6.303,6.32-11.85,6.852-17.29-8.813,11.96-18,23.54-30.67,31.65,43.23-17.59,56.77,5.729,0.3263,72.84z" transform="matrix(1.1951845,0,0,1.1951845,-24.741263,-15.262245)" filter="url(#filter3845)" fill="url(#radialGradient4537)"/>
  <path id="path3853" fill="url(#linearGradient4620)" d="m132,46.39l-15.01,2.54-9.748,16.77-4.893,1.531,1.98-12.47-13.67,7.806-3.1,15.8-6.237,4.482-4.893-7.022-11.69,12.66,3.324,7.993-4.295,6.275-7.619-0.5976-9.935,15.39,6.237,3.324-2.129,5.453-12.1,7.022-4.893,15.8,11.5-6.648,0.5976,5.864-15.95,13.15,1.195,14.72,12.81-12.47,4.295,4.893-13.86,20.28,8.777,7.395,14.64-20.06,8.366,0.9711-7.022,25.92,17.37-9.151,6.424-24.76,9.935-6.237,5.864,17.52,22.6-17.93-9.337-18.53,9.337-11.5,18.34,4.893,16.4-26.33-21.66-2.129,0.9711-10.94,27.12-6.611-1.382-22.45-20.06,7.433-4.482-5.266,16.55-16.17-8.553-7.022-16.4,15.99h-7.208l11.5-17.55zm-23.68,34.59c5.221-0.2306,9.168,1.563,10.79,5.378,3.109,9.478-3.549,32.92-13.74,43.62-17.43,22.73-46.82,32.37-48.82,10.98-0.3803-13.25,8.923-27.39,15.84-36.57,11.43-15.16,25.96-22.98,35.93-23.42z"/>
  <path id="path2991" d="m86.63,155.9c12.73,4.382,27.11-3.398,42.01-15.01-4.125,1.477-8.023,4.769-12.97-0.3263,12.76-8.084,26.07-12.01,37.19-32.3-7.465,5.027-14.2,7.57-19.49,5.22,13.38-11.82,28.46-13.59,38.42-43.31-6.534,7.007-13.26,11.53-20.23,12.89,12.61-13.71,16.15-33.14,35.4-42.25-17.7,5.036-27.66,13.59-41.11,20.56,4.548-6.148,6.673-11.33,9.136-16.64-8.832,8.068-17.78,15.67-27.9,18.6,6.586-8.803,6.243-12.06,8.972-17.78-7.982,8.386-15.47,17.27-25.94,23.17,5.249-6.303,6.32-11.85,6.852-17.29-8.77,11.94-18,23.53-30.67,31.63,43.2-17.59,56.8,5.73,0.33,72.84z" transform="matrix(1.1951845,0,0,1.1951845,-24.741263,-15.262245)" filter="url(#filter3849)" fill="url(#radialGradient4541)"/>
  <path id="path3885" fill="url(#linearGradient4616)" d="m107.6,84.3c-17.69-0.5029-53.2,40.57-44.41,60.32,3.656,5.714,10.33,5.394,17.78,1.531-1.114-17.02,19.05-42.7,35.33-51.54-0.213-2.721-0.9632-5.22-2.39-7.358-1.619-1.951-3.784-2.879-6.312-2.951z"/>
 </g>
</svg>